<svg width="1440" height="1320" viewBox="0 0 1440 1320" fill="none" xmlns="http://www.w3.org/2000/svg">
<rect width="1440" height="1320" fill="#0B0B0B"/>
<circle cx="180" cy="100" r="220" fill="#E6A4B4" fill-opacity="0.05"/>
<circle cx="1260" cy="1180" r="260" fill="#E6A4B4" fill-opacity="0.04"/>
<rect x="60" y="42" width="1320" height="92" rx="22" fill="white" fill-opacity="0.03" stroke="white" stroke-opacity="0.06"/>
<circle cx="108" cy="88" r="18" stroke="#E6A4B4" stroke-opacity="0.35"/>
<text x="102" y="95" fill="#E6A4B4" font-family="Georgia, serif" font-size="20">P</text>
<text x="140" y="86" fill="white" font-family="Georgia, serif" font-size="34">Pandora Scheduling</text>
<text x="140" y="108" fill="#A7A0A5" font-family="Arial, sans-serif" font-size="13">Calendario disponibilità, vista settimanale desktop</text>

<rect x="1120" y="64" width="120" height="30" rx="15" fill="white" fill-opacity="0.04" stroke="white" stroke-opacity="0.08"/>
<text x="1148" y="84" fill="#A7A0A5" font-family="Arial, sans-serif" font-size="13">Retail Team</text>
<rect x="1252" y="64" width="88" height="30" rx="15" fill="white" fill-opacity="0.04" stroke="white" stroke-opacity="0.08"/>
<text x="1278" y="84" fill="#A7A0A5" font-family="Arial, sans-serif" font-size="13">Gaia Z.</text>

<rect x="60" y="152" width="1320" height="96" rx="22" fill="#141414" stroke="white" stroke-opacity="0.06"/>
<rect x="84" y="176" width="220" height="48" rx="14" fill="#1B1B1B" stroke="#2A2A2A"/>
<text x="100" y="192" fill="#A7A0A5" font-family="Arial, sans-serif" font-size="11" letter-spacing="1.2">PERSONA</text>
<text x="100" y="212" fill="white" font-family="Arial, sans-serif" font-size="14">Tutti i negozi</text>
<text x="280" y="206" fill="white" font-family="Arial, sans-serif" font-size="18">▾</text>

<rect x="316" y="176" width="240" height="48" rx="14" fill="#1B1B1B" stroke="#2A2A2A"/>
<text x="332" y="192" fill="#A7A0A5" font-family="Arial, sans-serif" font-size="11" letter-spacing="1.2">SETTIMANA</text>
<text x="332" y="212" fill="white" font-family="Arial, sans-serif" font-size="14">2 – 6 Marzo 2026</text>
<text x="532" y="206" fill="white" font-family="Arial, sans-serif" font-size="18">▾</text>

<rect x="568" y="176" width="86" height="48" rx="14" fill="white" fill-opacity="0.02" stroke="#2A2A2A"/>
<text x="598" y="205" fill="white" font-family="Arial, sans-serif" font-size="14">Oggi</text>

<rect x="1088" y="176" width="116" height="48" rx="14" fill="white" fill-opacity="0.02" stroke="#2A2A2A"/>
<text x="1123" y="205" fill="white" font-family="Arial, sans-serif" font-size="14">Azzera</text>
<rect x="1216" y="176" width="140" height="48" rx="14" fill="#E6A4B4"/>
<text x="1243" y="205" fill="#111111" font-family="Arial, sans-serif" font-size="14" font-weight="700">Conferma slot</text>

<rect x="60" y="266" width="1320" height="980" rx="28" fill="white" fill-opacity="0.02" stroke="white" stroke-opacity="0.06"/>
<rect x="60" y="266" width="1320" height="84" rx="28" fill="#101010"/>
<line x1="170" y1="266" x2="170" y2="1246" stroke="white" stroke-opacity="0.05"/>
<line x1="404" y1="266" x2="404" y2="1246" stroke="white" stroke-opacity="0.05"/><text x="188" y="296" fill="#A7A0A5" font-family="Arial, sans-serif" font-size="11" letter-spacing="1.2">LUNEDÌ</text><text x="188" y="328" fill="white" font-family="Georgia, serif" font-size="32">02</text><line x1="638" y1="266" x2="638" y2="1246" stroke="white" stroke-opacity="0.05"/><text x="422" y="296" fill="#A7A0A5" font-family="Arial, sans-serif" font-size="11" letter-spacing="1.2">MARTEDÌ</text><text x="422" y="328" fill="white" font-family="Georgia, serif" font-size="32">03</text><line x1="872" y1="266" x2="872" y2="1246" stroke="white" stroke-opacity="0.05"/><rect x="638" y="266" width="234" height="84" fill="#E6A4B4" fill-opacity="0.06"/><rect x="652" y="346" width="206" height="2" rx="1" fill="#E6A4B4"/><text x="656" y="296" fill="#A7A0A5" font-family="Arial, sans-serif" font-size="11" letter-spacing="1.2">MERCOLEDÌ</text><text x="656" y="328" fill="#E6A4B4" font-family="Georgia, serif" font-size="32">04</text><line x1="1106" y1="266" x2="1106" y2="1246" stroke="white" stroke-opacity="0.05"/><text x="890" y="296" fill="#A7A0A5" font-family="Arial, sans-serif" font-size="11" letter-spacing="1.2">GIOVEDÌ</text><text x="890" y="328" fill="white" font-family="Georgia, serif" font-size="32">05</text><text x="1124" y="296" fill="#A7A0A5" font-family="Arial, sans-serif" font-size="11" letter-spacing="1.2">VENERDÌ</text><text x="1124" y="328" fill="white" font-family="Georgia, serif" font-size="32">06</text><text x="92" y="296" fill="#A7A0A5" font-family="Arial, sans-serif" font-size="11" letter-spacing="1.2">ORARIO</text><line x1="60" y1="392" x2="1380" y2="392" stroke="white" stroke-opacity="0.035"/><text x="92" y="376" fill="#A7A0A5" font-family="Arial, sans-serif" font-size="12">08:00</text><rect x="180" y="355" width="214" height="32" rx="10" fill="#111111" stroke="#2A2A2A"/><rect x="414" y="355" width="214" height="32" rx="10" fill="#111111" stroke="#2A2A2A"/><rect x="648" y="355" width="214" height="32" rx="10" fill="#E6A4B4" /><text x="711" y="375" fill="#111111" font-family="Arial, sans-serif" font-size="12">Selezionato</text><rect x="882" y="355" width="214" height="32" rx="10" fill="#111111" stroke="#2A2A2A"/><rect x="1116" y="355" width="214" height="32" rx="10" fill="#252525" stroke="#2D2D2D"/><text x="1179" y="375" fill="#6b6b6b" font-family="Arial, sans-serif" font-size="12">Occupato</text><line x1="60" y1="434" x2="1380" y2="434" stroke="white" stroke-opacity="0.035"/><text x="92" y="418" fill="#A7A0A5" font-family="Arial, sans-serif" font-size="12">08:30</text><rect x="180" y="397" width="214" height="32" rx="10" fill="#111111" stroke="#2A2A2A"/><rect x="414" y="397" width="214" height="32" rx="10" fill="#E6A4B4" /><text x="477" y="417" fill="#111111" font-family="Arial, sans-serif" font-size="12">Selezionato</text><rect x="648" y="397" width="214" height="32" rx="10" fill="#E6A4B4" /><text x="711" y="417" fill="#111111" font-family="Arial, sans-serif" font-size="12">Selezionato</text><rect x="882" y="397" width="214" height="32" rx="10" fill="#111111" stroke="#2A2A2A"/><rect x="1116" y="397" width="214" height="32" rx="10" fill="#252525" stroke="#2D2D2D"/><text x="1179" y="417" fill="#6b6b6b" font-family="Arial, sans-serif" font-size="12">Occupato</text><line x1="60" y1="476" x2="1380" y2="476" stroke="white" stroke-opacity="0.035"/><text x="92" y="460" fill="#A7A0A5" font-family="Arial, sans-serif" font-size="12">09:00</text><rect x="180" y="439" width="214" height="32" rx="10" fill="#252525" stroke="#2D2D2D"/><text x="243" y="459" fill="#6b6b6b" font-family="Arial, sans-serif" font-size="12">Occupato</text><rect x="414" y="439" width="214" height="32" rx="10" fill="#E6A4B4" /><text x="477" y="459" fill="#111111" font-family="Arial, sans-serif" font-size="12">Selezionato</text><rect x="648" y="439" width="214" height="32" rx="10" fill="#111111" stroke="#2A2A2A"/><rect x="882" y="439" width="214" height="32" rx="10" fill="#111111" stroke="#2A2A2A"/><rect x="1116" y="439" width="214" height="32" rx="10" fill="#111111" stroke="#2A2A2A"/><line x1="60" y1="518" x2="1380" y2="518" stroke="white" stroke-opacity="0.035"/><text x="92" y="502" fill="#A7A0A5" font-family="Arial, sans-serif" font-size="12">09:30</text><rect x="180" y="481" width="214" height="32" rx="10" fill="#252525" stroke="#2D2D2D"/><text x="243" y="501" fill="#6b6b6b" font-family="Arial, sans-serif" font-size="12">Occupato</text><rect x="414" y="481" width="214" height="32" rx="10" fill="#111111" stroke="#2A2A2A"/><rect x="648" y="481" width="214" height="32" rx="10" fill="#111111" stroke="#2A2A2A"/><rect x="882" y="481" width="214" height="32" rx="10" fill="#252525" stroke="#2D2D2D"/><text x="945" y="501" fill="#6b6b6b" font-family="Arial, sans-serif" font-size="12">Occupato</text><rect x="1116" y="481" width="214" height="32" rx="10" fill="#111111" stroke="#2A2A2A"/><line x1="60" y1="560" x2="1380" y2="560" stroke="white" stroke-opacity="0.035"/><text x="92" y="544" fill="#A7A0A5" font-family="Arial, sans-serif" font-size="12">10:00</text><rect x="180" y="523" width="214" height="32" rx="10" fill="#111111" stroke="#2A2A2A"/><rect x="414" y="523" width="214" height="32" rx="10" fill="#111111" stroke="#2A2A2A"/><rect x="648" y="523" width="214" height="32" rx="10" fill="#252525" stroke="#2D2D2D"/><text x="711" y="543" fill="#6b6b6b" font-family="Arial, sans-serif" font-size="12">Occupato</text><rect x="882" y="523" width="214" height="32" rx="10" fill="#252525" stroke="#2D2D2D"/><text x="945" y="543" fill="#6b6b6b" font-family="Arial, sans-serif" font-size="12">Occupato</text><rect x="1116" y="523" width="214" height="32" rx="10" fill="#111111" stroke="#2A2A2A"/><line x1="60" y1="602" x2="1380" y2="602" stroke="white" stroke-opacity="0.035"/><text x="92" y="586" fill="#A7A0A5" font-family="Arial, sans-serif" font-size="12">10:30</text><rect x="180" y="565" width="214" height="32" rx="10" fill="#111111" stroke="#2A2A2A"/><rect x="414" y="565" width="214" height="32" rx="10" fill="#111111" stroke="#2A2A2A"/><rect x="648" y="565" width="214" height="32" rx="10" fill="#252525" stroke="#2D2D2D"/><text x="711" y="585" fill="#6b6b6b" font-family="Arial, sans-serif" font-size="12">Occupato</text><rect x="882" y="565" width="214" height="32" rx="10" fill="#111111" stroke="#2A2A2A"/><rect x="1116" y="565" width="214" height="32" rx="10" fill="#E6A4B4" /><text x="1179" y="585" fill="#111111" font-family="Arial, sans-serif" font-size="12">Selezionato</text><line x1="60" y1="644" x2="1380" y2="644" stroke="white" stroke-opacity="0.035"/><text x="92" y="628" fill="#A7A0A5" font-family="Arial, sans-serif" font-size="12">11:00</text><rect x="180" y="607" width="214" height="32" rx="10" fill="#111111" stroke="#2A2A2A"/><rect x="414" y="607" width="214" height="32" rx="10" fill="#252525" stroke="#2D2D2D"/><text x="477" y="627" fill="#6b6b6b" font-family="Arial, sans-serif" font-size="12">Occupato</text><rect x="648" y="607" width="214" height="32" rx="10" fill="#111111" stroke="#2A2A2A"/><rect x="882" y="607" width="214" height="32" rx="10" fill="#111111" stroke="#2A2A2A"/><rect x="1116" y="607" width="214" height="32" rx="10" fill="#E6A4B4" /><text x="1179" y="627" fill="#111111" font-family="Arial, sans-serif" font-size="12">Selezionato</text><line x1="60" y1="686" x2="1380" y2="686" stroke="white" stroke-opacity="0.035"/><text x="92" y="670" fill="#A7A0A5" font-family="Arial, sans-serif" font-size="12">11:30</text><rect x="180" y="649" width="214" height="32" rx="10" fill="#E6A4B4" /><text x="243" y="669" fill="#111111" font-family="Arial, sans-serif" font-size="12">Selezionato</text><rect x="414" y="649" width="214" height="32" rx="10" fill="#252525" stroke="#2D2D2D"/><text x="477" y="669" fill="#6b6b6b" font-family="Arial, sans-serif" font-size="12">Occupato</text><rect x="648" y="649" width="214" height="32" rx="10" fill="#111111" stroke="#2A2A2A"/><rect x="882" y="649" width="214" height="32" rx="10" fill="#111111" stroke="#2A2A2A"/><rect x="1116" y="649" width="214" height="32" rx="10" fill="#E6A4B4" /><text x="1179" y="669" fill="#111111" font-family="Arial, sans-serif" font-size="12">Selezionato</text><line x1="60" y1="728" x2="1380" y2="728" stroke="white" stroke-opacity="0.035"/><text x="92" y="712" fill="#A7A0A5" font-family="Arial, sans-serif" font-size="12">12:00</text><rect x="180" y="691" width="214" height="32" rx="10" fill="#E6A4B4" /><text x="243" y="711" fill="#111111" font-family="Arial, sans-serif" font-size="12">Selezionato</text><rect x="414" y="691" width="214" height="32" rx="10" fill="#111111" stroke="#2A2A2A"/><rect x="648" y="691" width="214" height="32" rx="10" fill="#111111" stroke="#2A2A2A"/><rect x="882" y="691" width="214" height="32" rx="10" fill="#111111" stroke="#2A2A2A"/><rect x="1116" y="691" width="214" height="32" rx="10" fill="#111111" stroke="#2A2A2A"/><line x1="60" y1="770" x2="1380" y2="770" stroke="white" stroke-opacity="0.035"/><text x="92" y="754" fill="#A7A0A5" font-family="Arial, sans-serif" font-size="12">12:30</text><rect x="180" y="733" width="214" height="32" rx="10" fill="#111111" stroke="#2A2A2A"/><rect x="414" y="733" width="214" height="32" rx="10" fill="#111111" stroke="#2A2A2A"/><rect x="648" y="733" width="214" height="32" rx="10" fill="#252525" stroke="#2D2D2D"/><text x="711" y="753" fill="#6b6b6b" font-family="Arial, sans-serif" font-size="12">Occupato</text><rect x="882" y="733" width="214" height="32" rx="10" fill="#111111" stroke="#2A2A2A"/><rect x="1116" y="733" width="214" height="32" rx="10" fill="#111111" stroke="#2A2A2A"/><line x1="60" y1="812" x2="1380" y2="812" stroke="white" stroke-opacity="0.035"/><text x="92" y="796" fill="#A7A0A5" font-family="Arial, sans-serif" font-size="12">13:00</text><rect x="180" y="775" width="214" height="32" rx="10" fill="#111111" stroke="#2A2A2A"/><rect x="414" y="775" width="214" height="32" rx="10" fill="#E6A4B4" /><text x="477" y="795" fill="#111111" font-family="Arial, sans-serif" font-size="12">Selezionato</text><rect x="648" y="775" width="214" height="32" rx="10" fill="#252525" stroke="#2D2D2D"/><text x="711" y="795" fill="#6b6b6b" font-family="Arial, sans-serif" font-size="12">Occupato</text><rect x="882" y="775" width="214" height="32" rx="10" fill="#111111" stroke="#2A2A2A"/><rect x="1116" y="775" width="214" height="32" rx="10" fill="#252525" stroke="#2D2D2D"/><text x="1179" y="795" fill="#6b6b6b" font-family="Arial, sans-serif" font-size="12">Occupato</text><line x1="60" y1="854" x2="1380" y2="854" stroke="white" stroke-opacity="0.035"/><text x="92" y="838" fill="#A7A0A5" font-family="Arial, sans-serif" font-size="12">13:30</text><rect x="180" y="817" width="214" height="32" rx="10" fill="#111111" stroke="#2A2A2A"/><rect x="414" y="817" width="214" height="32" rx="10" fill="#E6A4B4" /><text x="477" y="837" fill="#111111" font-family="Arial, sans-serif" font-size="12">Selezionato</text><rect x="648" y="817" width="214" height="32" rx="10" fill="#111111" stroke="#2A2A2A"/><rect x="882" y="817" width="214" height="32" rx="10" fill="#111111" stroke="#2A2A2A"/><rect x="1116" y="817" width="214" height="32" rx="10" fill="#252525" stroke="#2D2D2D"/><text x="1179" y="837" fill="#6b6b6b" font-family="Arial, sans-serif" font-size="12">Occupato</text><line x1="60" y1="896" x2="1380" y2="896" stroke="white" stroke-opacity="0.035"/><text x="92" y="880" fill="#A7A0A5" font-family="Arial, sans-serif" font-size="12">14:00</text><rect x="180" y="859" width="214" height="32" rx="10" fill="#252525" stroke="#2D2D2D"/><text x="243" y="879" fill="#6b6b6b" font-family="Arial, sans-serif" font-size="12">Occupato</text><rect x="414" y="859" width="214" height="32" rx="10" fill="#111111" stroke="#2A2A2A"/><rect x="648" y="859" width="214" height="32" rx="10" fill="#111111" stroke="#2A2A2A"/><rect x="882" y="859" width="214" height="32" rx="10" fill="#E6A4B4" /><text x="945" y="879" fill="#111111" font-family="Arial, sans-serif" font-size="12">Selezionato</text><rect x="1116" y="859" width="214" height="32" rx="10" fill="#252525" stroke="#2D2D2D"/><text x="1179" y="879" fill="#6b6b6b" font-family="Arial, sans-serif" font-size="12">Occupato</text><line x1="60" y1="938" x2="1380" y2="938" stroke="white" stroke-opacity="0.035"/><text x="92" y="922" fill="#A7A0A5" font-family="Arial, sans-serif" font-size="12">14:30</text><rect x="180" y="901" width="214" height="32" rx="10" fill="#252525" stroke="#2D2D2D"/><text x="243" y="921" fill="#6b6b6b" font-family="Arial, sans-serif" font-size="12">Occupato</text><rect x="414" y="901" width="214" height="32" rx="10" fill="#111111" stroke="#2A2A2A"/><rect x="648" y="901" width="214" height="32" rx="10" fill="#111111" stroke="#2A2A2A"/><rect x="882" y="901" width="214" height="32" rx="10" fill="#E6A4B4" /><text x="945" y="921" fill="#111111" font-family="Arial, sans-serif" font-size="12">Selezionato</text><rect x="1116" y="901" width="214" height="32" rx="10" fill="#111111" stroke="#2A2A2A"/><line x1="60" y1="980" x2="1380" y2="980" stroke="white" stroke-opacity="0.035"/><text x="92" y="964" fill="#A7A0A5" font-family="Arial, sans-serif" font-size="12">15:00</text><rect x="180" y="943" width="214" height="32" rx="10" fill="#111111" stroke="#2A2A2A"/><rect x="414" y="943" width="214" height="32" rx="10" fill="#111111" stroke="#2A2A2A"/><rect x="648" y="943" width="214" height="32" rx="10" fill="#111111" stroke="#2A2A2A"/><rect x="882" y="943" width="214" height="32" rx="10" fill="#E6A4B4" /><text x="945" y="963" fill="#111111" font-family="Arial, sans-serif" font-size="12">Selezionato</text><rect x="1116" y="943" width="214" height="32" rx="10" fill="#111111" stroke="#2A2A2A"/><line x1="60" y1="1022" x2="1380" y2="1022" stroke="white" stroke-opacity="0.035"/><text x="92" y="1006" fill="#A7A0A5" font-family="Arial, sans-serif" font-size="12">15:30</text><rect x="180" y="985" width="214" height="32" rx="10" fill="#111111" stroke="#2A2A2A"/><rect x="414" y="985" width="214" height="32" rx="10" fill="#252525" stroke="#2D2D2D"/><text x="477" y="1005" fill="#6b6b6b" font-family="Arial, sans-serif" font-size="12">Occupato</text><rect x="648" y="985" width="214" height="32" rx="10" fill="#111111" stroke="#2A2A2A"/><rect x="882" y="985" width="214" height="32" rx="10" fill="#111111" stroke="#2A2A2A"/><rect x="1116" y="985" width="214" height="32" rx="10" fill="#111111" stroke="#2A2A2A"/><line x1="60" y1="1064" x2="1380" y2="1064" stroke="white" stroke-opacity="0.035"/><text x="92" y="1048" fill="#A7A0A5" font-family="Arial, sans-serif" font-size="12">16:00</text><rect x="180" y="1027" width="214" height="32" rx="10" fill="#E6A4B4" /><text x="243" y="1047" fill="#111111" font-family="Arial, sans-serif" font-size="12">Selezionato</text><rect x="414" y="1027" width="214" height="32" rx="10" fill="#252525" stroke="#2D2D2D"/><text x="477" y="1047" fill="#6b6b6b" font-family="Arial, sans-serif" font-size="12">Occupato</text><rect x="648" y="1027" width="214" height="32" rx="10" fill="#E6A4B4" /><text x="711" y="1047" fill="#111111" font-family="Arial, sans-serif" font-size="12">Selezionato</text><rect x="882" y="1027" width="214" height="32" rx="10" fill="#111111" stroke="#2A2A2A"/><rect x="1116" y="1027" width="214" height="32" rx="10" fill="#111111" stroke="#2A2A2A"/><line x1="60" y1="1106" x2="1380" y2="1106" stroke="white" stroke-opacity="0.035"/><text x="92" y="1090" fill="#A7A0A5" font-family="Arial, sans-serif" font-size="12">16:30</text><rect x="180" y="1069" width="214" height="32" rx="10" fill="#E6A4B4" /><text x="243" y="1089" fill="#111111" font-family="Arial, sans-serif" font-size="12">Selezionato</text><rect x="414" y="1069" width="214" height="32" rx="10" fill="#111111" stroke="#2A2A2A"/><rect x="648" y="1069" width="214" height="32" rx="10" fill="#E6A4B4" /><text x="711" y="1089" fill="#111111" font-family="Arial, sans-serif" font-size="12">Selezionato</text><rect x="882" y="1069" width="214" height="32" rx="10" fill="#252525" stroke="#2D2D2D"/><text x="945" y="1089" fill="#6b6b6b" font-family="Arial, sans-serif" font-size="12">Occupato</text><rect x="1116" y="1069" width="214" height="32" rx="10" fill="#111111" stroke="#2A2A2A"/><line x1="60" y1="1148" x2="1380" y2="1148" stroke="white" stroke-opacity="0.035"/><text x="92" y="1132" fill="#A7A0A5" font-family="Arial, sans-serif" font-size="12">17:00</text><rect x="180" y="1111" width="214" height="32" rx="10" fill="#111111" stroke="#2A2A2A"/><rect x="414" y="1111" width="214" height="32" rx="10" fill="#111111" stroke="#2A2A2A"/><rect x="648" y="1111" width="214" height="32" rx="10" fill="#111111" stroke="#2A2A2A"/><rect x="882" y="1111" width="214" height="32" rx="10" fill="#252525" stroke="#2D2D2D"/><text x="945" y="1131" fill="#6b6b6b" font-family="Arial, sans-serif" font-size="12">Occupato</text><rect x="1116" y="1111" width="214" height="32" rx="10" fill="#E6A4B4" /><text x="1179" y="1131" fill="#111111" font-family="Arial, sans-serif" font-size="12">Selezionato</text><line x1="60" y1="1190" x2="1380" y2="1190" stroke="white" stroke-opacity="0.035"/><text x="92" y="1174" fill="#A7A0A5" font-family="Arial, sans-serif" font-size="12">17:30</text><rect x="180" y="1153" width="214" height="32" rx="10" fill="#111111" stroke="#2A2A2A"/><rect x="414" y="1153" width="214" height="32" rx="10" fill="#111111" stroke="#2A2A2A"/><rect x="648" y="1153" width="214" height="32" rx="10" fill="#111111" stroke="#2A2A2A"/><rect x="882" y="1153" width="214" height="32" rx="10" fill="#111111" stroke="#2A2A2A"/><rect x="1116" y="1153" width="214" height="32" rx="10" fill="#E6A4B4" /><text x="1179" y="1173" fill="#111111" font-family="Arial, sans-serif" font-size="12">Selezionato</text><line x1="60" y1="1232" x2="1380" y2="1232" stroke="white" stroke-opacity="0.035"/><text x="92" y="1216" fill="#A7A0A5" font-family="Arial, sans-serif" font-size="12">18:00</text><rect x="180" y="1195" width="214" height="32" rx="10" fill="#111111" stroke="#2A2A2A"/><rect x="414" y="1195" width="214" height="32" rx="10" fill="#E6A4B4" /><text x="477" y="1215" fill="#111111" font-family="Arial, sans-serif" font-size="12">Selezionato</text><rect x="648" y="1195" width="214" height="32" rx="10" fill="#252525" stroke="#2D2D2D"/><text x="711" y="1215" fill="#6b6b6b" font-family="Arial, sans-serif" font-size="12">Occupato</text><rect x="882" y="1195" width="214" height="32" rx="10" fill="#111111" stroke="#2A2A2A"/><rect x="1116" y="1195" width="214" height="32" rx="10" fill="#E6A4B4" /><text x="1179" y="1215" fill="#111111" font-family="Arial, sans-serif" font-size="12">Selezionato</text><line x1="60" y1="1274" x2="1380" y2="1274" stroke="white" stroke-opacity="0.035"/><text x="92" y="1258" fill="#A7A0A5" font-family="Arial, sans-serif" font-size="12">18:30</text><rect x="180" y="1237" width="214" height="32" rx="10" fill="#252525" stroke="#2D2D2D"/><text x="243" y="1257" fill="#6b6b6b" font-family="Arial, sans-serif" font-size="12">Occupato</text><rect x="414" y="1237" width="214" height="32" rx="10" fill="#E6A4B4" /><text x="477" y="1257" fill="#111111" font-family="Arial, sans-serif" font-size="12">Selezionato</text><rect x="648" y="1237" width="214" height="32" rx="10" fill="#252525" stroke="#2D2D2D"/><text x="711" y="1257" fill="#6b6b6b" font-family="Arial, sans-serif" font-size="12">Occupato</text><rect x="882" y="1237" width="214" height="32" rx="10" fill="#111111" stroke="#2A2A2A"/><rect x="1116" y="1237" width="214" height="32" rx="10" fill="#111111" stroke="#2A2A2A"/><line x1="60" y1="1316" x2="1380" y2="1316" stroke="white" stroke-opacity="0.035"/><text x="92" y="1300" fill="#A7A0A5" font-family="Arial, sans-serif" font-size="12">19:00</text><rect x="180" y="1279" width="214" height="32" rx="10" fill="#252525" stroke="#2D2D2D"/><text x="243" y="1299" fill="#6b6b6b" font-family="Arial, sans-serif" font-size="12">Occupato</text><rect x="414" y="1279" width="214" height="32" rx="10" fill="#111111" stroke="#2A2A2A"/><rect x="648" y="1279" width="214" height="32" rx="10" fill="#111111" stroke="#2A2A2A"/><rect x="882" y="1279" width="214" height="32" rx="10" fill="#111111" stroke="#2A2A2A"/><rect x="1116" y="1279" width="214" height="32" rx="10" fill="#111111" stroke="#2A2A2A"/><line x1="60" y1="1358" x2="1380" y2="1358" stroke="white" stroke-opacity="0.035"/><text x="92" y="1342" fill="#A7A0A5" font-family="Arial, sans-serif" font-size="12">19:30</text><rect x="180" y="1321" width="214" height="32" rx="10" fill="#111111" stroke="#2A2A2A"/><rect x="414" y="1321" width="214" height="32" rx="10" fill="#111111" stroke="#2A2A2A"/><rect x="648" y="1321" width="214" height="32" rx="10" fill="#111111" stroke="#2A2A2A"/><rect x="882" y="1321" width="214" height="32" rx="10" fill="#252525" stroke="#2D2D2D"/><text x="945" y="1341" fill="#6b6b6b" font-family="Arial, sans-serif" font-size="12">Occupato</text><rect x="1116" y="1321" width="214" height="32" rx="10" fill="#111111" stroke="#2A2A2A"/>
<text x="84" y="1278" fill="#A7A0A5" font-family="Arial, sans-serif" font-size="12">Vista desktop. Re-skin grafico senza cambio di UX o logica di prenotazione.</text>
<text x="955" y="1278" fill="#A7A0A5" font-family="Arial, sans-serif" font-size="12">Brand language: black, blush pink, premium minimal.</text>
</svg>